<?xml version="1.0" standalone="no"?>
<!DOCTYPE svg PUBLIC "-//W3C//DTD SVG 20010904//EN"
 "http://www.w3.org/TR/2001/REC-SVG-20010904/DTD/svg10.dtd">
<svg version="1.0" xmlns="http://www.w3.org/2000/svg"
 width="200.000000pt" height="200.000000pt" viewBox="0 0 200.000000 200.000000"
 preserveAspectRatio="xMidYMid meet">
<metadata>
Created by potrace 1.16, written by Peter Selinger 2001-2019
</metadata>
<g transform="translate(0.000000,200.000000) scale(0.100000,-0.100000)"
fill="#28a745" stroke="none">
<path d="M1415 1567 c-168 -141 -303 -295 -366 -419 -28 -56 -67 -91 -147
-132 -31 -16 -29 -11 44 99 48 71 83 114 90 111 7 -3 22 7 34 21 15 20 17 29
9 40 -9 10 -4 25 25 68 30 46 40 54 59 50 17 -4 27 2 46 32 l24 37 -24 19
c-44 37 -183 96 -261 112 -319 63 -639 -93 -778 -380 -52 -106 -70 -187 -70
-316 0 -270 131 -494 364 -623 111 -62 193 -81 346 -80 121 0 144 3 215 28
239 83 410 266 471 506 19 74 23 275 6 292 -6 6 -26 7 -50 3 l-40 -6 -4 -114
c-1 -62 -5 -116 -8 -118 -3 -3 -34 1 -70 9 l-65 15 3 60 c5 88 -2 111 -36 107
-26 -3 -27 -5 -30 -79 l-3 -76 -131 28 c-72 16 -132 30 -134 32 -2 2 30 29 72
60 67 50 81 57 122 57 57 0 179 29 282 65 82 30 272 119 334 158 l39 24 -76
52 c-43 28 -77 54 -77 56 0 3 18 21 40 41 86 78 18 135 -83 69 -29 -19 -26
-26 -52 98 -9 42 -18 77 -19 77 0 0 -46 -38 -101 -83z m-499 -60 c2 -2 -2 -33
-9 -68 l-13 -64 -91 -3 -90 -3 -6 38 c-4 21 -9 52 -13 70 -5 27 -3 32 17 36
26 6 199 1 205 -6z m-415 -153 l36 -55 -61 -63 -61 -62 -52 34 c-29 19 -53 42
-53 50 0 14 134 152 148 152 4 0 23 -25 43 -56z m1059 27 c8 -17 -23 -41 -259
-200 -269 -181 -281 -187 -293 -144 -3 13 522 374 534 366 5 -2 12 -12 18 -22z
m-699 -79 c13 -6 11 -27 -20 -174 -19 -93 -37 -168 -40 -168 -3 0 -19 68 -35
152 -16 83 -31 159 -33 169 -3 11 2 19 14 22 28 7 96 6 114 -1z m-183 -213
c51 -78 92 -143 90 -145 -5 -4 -288 184 -288 191 0 11 83 95 94 95 6 0 53 -64
104 -141z m-368 -85 l35 -6 0 -89 c0 -82 -2 -90 -20 -94 -86 -20 -111 -23
-118 -16 -10 10 -11 197 -1 212 4 7 19 8 38 5 17 -4 47 -9 66 -12z m277 -59
c93 -20 172 -37 177 -38 6 -2 -64 -18 -155 -36 -90 -18 -172 -34 -181 -37 -16
-5 -18 3 -18 70 0 42 2 76 5 76 2 0 80 -16 172 -35z m96 -210 c-53 -80 -101
-145 -107 -145 -15 0 -102 88 -95 95 7 6 293 195 297 195 1 0 -41 -65 -95
-145z m330 33 c64 -43 117 -82 117 -86 0 -14 -88 -94 -99 -91 -16 6 -172 249
-165 260 6 11 -1 15 147 -83z m-166 -86 c17 -86 29 -159 27 -161 -8 -9 -119
-12 -130 -4 -12 8 -9 24 42 261 9 40 19 70 23 67 3 -4 20 -77 38 -163z m436
-148 c-29 -38 -123 -124 -135 -124 -5 0 -24 24 -43 54 l-35 55 63 63 62 63 58
-38 57 -38 -27 -35z m-805 46 l62 -61 -36 -54 c-20 -30 -40 -55 -45 -55 -11 0
-116 98 -139 130 l-20 27 53 36 c28 20 54 36 57 36 3 1 34 -26 68 -59z m429
-199 c7 -35 10 -67 7 -70 -8 -8 -211 -7 -219 1 -6 6 6 78 20 125 3 8 31 11 91
10 l88 -2 13 -64z"/>
</g>
</svg>
