<?xml version="1.0" standalone="no"?>
<!DOCTYPE svg PUBLIC "-//W3C//DTD SVG 20010904//EN"
 "http://www.w3.org/TR/2001/REC-SVG-20010904/DTD/svg10.dtd">
<svg version="1.0" xmlns="http://www.w3.org/2000/svg"
 width="512.000000pt" height="512.000000pt" viewBox="0 0 512.000000 512.000000"
 preserveAspectRatio="xMidYMid meet">
<metadata>
Created by potrace 1.16, written by Peter Selinger 2001-2019
</metadata>
<g transform="translate(0.000000,512.000000) scale(0.100000,-0.100000)"
fill="#000000" stroke="none">
<path d="M3914 4709 c-166 -165 -307 -312 -315 -325 -11 -21 -8 -56 18 -232
l30 -207 -648 -650 c-385 -386 -653 -662 -659 -680 -6 -16 -11 -52 -11 -80
l-1 -50 -172 -175 c-175 -177 -189 -198 -178 -255 6 -32 45 -71 77 -77 57 -11
78 3 257 180 155 153 180 174 203 170 14 -3 47 -1 73 4 45 10 73 36 702 663
l655 653 185 -29 c102 -15 200 -28 218 -28 30 -1 59 26 345 315 171 174 314
323 315 331 6 26 -8 62 -28 73 -11 6 -144 28 -296 49 -151 22 -277 41 -278 42
-2 2 -20 119 -40 259 -44 297 -50 326 -76 340 -54 29 -59 24 -376 -291z"/>
<path d="M1810 3984 c-437 -59 -822 -248 -1129 -555 -761 -761 -761 -1989 -1
-2749 760 -760 1988 -760 2749 1 312 312 497 694 556 1142 56 430 -48 895
-282 1265 -19 28 -37 52 -41 52 -10 0 -242 -233 -242 -244 0 -5 27 -63 60
-130 117 -238 159 -408 167 -666 9 -294 -41 -511 -179 -781 -202 -395 -584
-701 -1012 -810 -140 -36 -246 -49 -401 -49 -443 0 -838 168 -1146 486 -166
173 -269 335 -355 563 -121 320 -126 731 -12 1056 137 393 418 719 777 903
273 140 488 189 786 179 259 -9 421 -50 661 -167 67 -33 125 -60 130 -60 11 0
244 232 244 242 0 22 -251 156 -396 211 -291 111 -631 152 -934 111z"/>
<path d="M1836 3244 c-492 -89 -874 -473 -971 -975 -19 -99 -21 -302 -5 -404
68 -427 370 -796 773 -945 312 -115 675 -93 971 58 337 173 576 495 641 866
29 169 16 400 -31 551 -28 91 -77 205 -88 205 -6 0 -67 -56 -136 -125 l-124
-124 21 -93 c31 -132 36 -200 23 -303 -27 -203 -105 -360 -250 -505 -223 -223
-517 -306 -818 -229 -415 105 -700 522 -642 938 28 202 104 355 250 501 147
147 306 225 510 249 106 13 165 9 296 -21 l92 -21 123 127 c68 71 125 131 127
135 3 8 -125 61 -203 85 -158 47 -392 60 -559 30z"/>
<path d="M1911 2564 c-160 -43 -311 -190 -361 -352 -25 -80 -27 -225 -4 -303
50 -172 191 -312 363 -363 78 -23 222 -21 303 4 164 50 310 202 353 365 15 59
21 209 9 239 -3 9 -11 16 -17 16 -6 0 -83 -71 -171 -158 -186 -183 -211 -198
-324 -190 -86 6 -153 47 -202 121 -27 41 -34 63 -38 119 -8 113 7 138 190 324
87 88 158 165 158 171 0 6 -7 14 -16 17 -29 11 -189 5 -243 -10z"/>
</g>
</svg>
