<?xml version="1.0" standalone="no"?>
<!DOCTYPE svg PUBLIC "-//W3C//DTD SVG 20010904//EN"
 "http://www.w3.org/TR/2001/REC-SVG-20010904/DTD/svg10.dtd">
<svg version="1.0" xmlns="http://www.w3.org/2000/svg"
 width="100" height="90" viewBox="0 0 1280.000000 889.000000"
 preserveAspectRatio="xMidYMid meet">
<metadata>
Created by potrace 1.15, written by Peter Selinger 2001-2017
</metadata>
<g transform="translate(0.000000,889.000000) scale(0.100000,-0.100000)"
fill="#000000" stroke="none">
<path d="M3100 8884 c-165 -20 -218 -28 -305 -45 -409 -82 -817 -278 -1180
-567 -160 -127 -426 -395 -559 -562 -577 -727 -922 -1639 -1033 -2730 -25
-246 -25 -824 0 -1070 97 -957 365 -1752 823 -2440 149 -224 295 -402 483
-591 498 -498 1019 -769 1656 -861 134 -19 502 -16 645 5 837 127 1575 642
2124 1481 341 522 583 1135 715 1816 44 229 71 443 97 763 l6 77 218 0 c165 0
220 3 223 13 4 9 6 9 6 0 1 -9 22 -13 70 -13 46 0 71 4 75 13 5 10 7 10 12 0
7 -17 126 -17 142 -1 9 9 12 9 12 -1 0 -12 64 -13 376 -7 208 4 383 10 390 13
8 3 14 11 14 19 0 8 6 14 13 14 69 0 553 44 558 51 3 5 25 9 50 9 24 0 51 0
59 0 8 0 42 -1 75 -3 33 -1 66 1 73 7 8 6 22 5 38 -3 20 -9 30 -9 40 0 10 8
22 8 45 0 21 -7 36 -8 44 -1 7 6 23 6 43 1 21 -6 32 -6 35 2 2 7 13 7 37 -1
19 -7 36 -8 39 -3 7 10 222 8 239 -3 7 -4 12 -3 12 2 0 8 164 8 486 -1 l82 -2
396 -345 c237 -207 419 -357 452 -374 47 -26 69 -30 147 -33 51 -2 119 -10
152 -18 56 -14 296 -28 700 -42 140 -5 183 -3 245 11 145 33 268 112 336 216
12 19 84 190 159 379 l136 344 -117 296 c-148 377 -145 370 -219 446 -81 82
-189 136 -332 164 -92 19 -137 21 -485 21 -420 0 -443 -3 -543 -59 -30 -17
-79 -36 -108 -42 -28 -6 -67 -20 -86 -30 -27 -16 -464 -357 -776 -606 l-80
-64 -65 5 c-44 4 -78 1 -105 -8 -25 -9 -44 -11 -51 -5 -7 6 -22 5 -39 -1 -21
-8 -30 -8 -35 1 -6 8 -17 8 -44 -2 -31 -11 -38 -11 -45 0 -7 10 -13 10 -29 2
-25 -13 -62 -14 -62 -2 0 6 -12 6 -31 -1 -23 -8 -33 -8 -38 0 -5 8 -17 8 -45
0 -29 -9 -39 -9 -45 0 -5 9 -15 9 -39 0 -26 -10 -34 -10 -41 0 -6 9 -15 10
-40 1 -26 -9 -35 -9 -41 1 -6 9 -13 9 -28 1 -26 -14 -62 -14 -62 -1 0 7 -6 7
-19 0 -25 -13 -61 -13 -61 0 0 7 -6 7 -19 0 -24 -12 -61 -13 -61 -1 0 5 -16 4
-36 -2 -28 -8 -37 -8 -43 2 -7 10 -13 10 -29 2 -25 -13 -62 -14 -62 -2 0 5
-16 4 -36 -2 -26 -8 -37 -8 -42 1 -5 7 -13 8 -22 2 -20 -13 -57 -13 -62 0 -3
9 -214 30 -453 46 -86 5 -102 9 -117 28 -17 21 -22 21 -397 24 -356 3 -381 2
-381 -15 0 -13 -3 -14 -12 -5 -16 16 -135 16 -142 0 -5 -10 -7 -10 -12 0 -8
17 -140 17 -147 0 -4 -10 -6 -10 -6 0 -1 9 -52 12 -219 12 l-219 0 -7 152
c-52 1150 -466 2271 -1124 3043 -503 590 -1131 959 -1802 1060 -100 15 -464
28 -540 19z m510 -310 c644 -98 1241 -478 1719 -1092 476 -612 805 -1453 911
-2326 22 -186 40 -403 40 -492 0 -67 -8 -78 -45 -60 -20 9 -23 22 -34 185 -71
1045 -465 1991 -1091 2622 -408 411 -879 649 -1400 710 -144 16 -422 7 -565
-20 -484 -90 -904 -325 -1290 -722 -579 -596 -941 -1440 -1052 -2449 -24 -222
-24 -743 0 -975 106 -1002 476 -1864 1057 -2458 317 -325 655 -540 1039 -658
366 -113 764 -118 1151 -14 896 242 1668 1138 1990 2314 78 282 143 654 156
893 l7 116 31 5 c17 3 34 2 38 -2 16 -15 -34 -480 -77 -717 -261 -1436 -1064
-2580 -2099 -2988 -261 -104 -513 -150 -811 -150 -366 0 -663 70 -1004 239
-428 212 -824 566 -1146 1025 -451 643 -731 1455 -822 2380 -23 242 -23 768 0
1010 101 1034 430 1902 985 2596 113 142 359 389 492 494 412 326 854 510
1330 554 89 8 387 -4 490 -20z m90 -745 c444 -55 851 -266 1210 -628 565 -570
925 -1435 1000 -2400 16 -213 18 -201 -35 -201 -28 0 -47 5 -49 13 -2 6 -9 78
-15 158 -64 849 -453 1665 -1011 2116 -554 448 -1238 536 -1846 237 -207 -102
-379 -230 -561 -417 -433 -446 -706 -1052 -809 -1797 -21 -154 -30 -635 -15
-800 32 -347 95 -635 207 -950 53 -148 199 -448 279 -575 360 -568 856 -922
1410 -1006 128 -19 370 -14 510 10 929 164 1681 1145 1825 2381 6 52 13 114
16 138 l5 42 46 0 46 0 -7 -107 c-13 -197 -61 -491 -117 -718 -111 -444 -285
-848 -515 -1195 -380 -574 -877 -940 -1433 -1057 -113 -24 -148 -27 -336 -27
-230 0 -306 9 -498 64 -684 197 -1282 813 -1629 1680 -148 370 -236 744 -290
1230 -19 174 -16 698 5 890 106 962 463 1775 1018 2315 242 236 471 388 746
495 115 45 312 96 423 109 109 12 322 13 420 0z m245 -844 c554 -115 1027
-548 1319 -1210 144 -326 243 -730 262 -1076 l7 -117 -31 -7 c-17 -3 -36 -13
-43 -21 -6 -8 -15 -14 -19 -14 -4 0 -10 47 -13 105 -48 784 -451 1493 -1007
1775 -287 145 -626 172 -926 74 -487 -159 -896 -637 -1082 -1266 -34 -112 -73
-300 -94 -443 -8 -57 -13 -187 -12 -355 0 -221 4 -288 22 -405 43 -278 114
-507 226 -740 252 -519 640 -853 1093 -941 119 -24 330 -23 442 0 455 96 830
414 1084 922 118 236 220 590 243 847 7 85 8 85 77 66 l37 -10 -6 -57 c-84
-813 -404 -1490 -894 -1897 -631 -523 -1420 -472 -2015 129 -423 428 -688
1055 -756 1789 -15 163 -6 600 15 752 79 560 261 1029 548 1414 88 117 295
327 400 405 213 157 430 251 674 291 112 18 338 13 449 -10z m165 -754 c553
-160 986 -845 1027 -1628 5 -107 4 -123 -9 -123 -9 0 -29 -3 -45 -6 l-30 -6
-6 99 c-28 459 -258 904 -572 1109 -508 331 -1113 56 -1363 -621 -93 -250
-127 -490 -110 -776 18 -330 130 -656 305 -891 204 -273 508 -422 793 -391
489 54 872 541 945 1200 l7 62 31 -6 c55 -10 54 -9 40 -130 -71 -627 -403
-1185 -833 -1403 -381 -192 -796 -116 -1132 208 -291 281 -477 684 -550 1197
-19 137 -16 523 5 665 111 723 484 1268 978 1429 108 35 147 40 299 37 111 -3
163 -9 220 -25z m35 -736 c87 -23 168 -71 250 -146 200 -187 323 -483 351
-841 l7 -88 -105 0 -105 0 -6 73 c-9 98 -38 194 -92 304 -55 112 -140 203
-230 248 -52 25 -72 29 -145 30 -77 0 -92 -3 -152 -33 -133 -65 -243 -221
-299 -422 -21 -74 -24 -107 -24 -255 1 -183 16 -268 69 -389 132 -298 392
-408 606 -259 138 97 247 308 267 516 l6 68 101 -3 101 -3 -3 -40 c-23 -308
-159 -618 -347 -794 -232 -216 -508 -216 -740 0 -125 117 -208 256 -275 458
-56 171 -74 285 -74 486 0 245 39 436 130 634 106 232 301 418 479 460 62 14
165 12 230 -4z"/>
</g>
</svg>
